#define close_hover_width 20
#define close_hover_height 8
static unsigned char close_hover_bits[] = {
   0x00, 0x0f, 0x00, 0x80, 0x1f, 0x00, 0xc0, 0x3f, 0x00, 0xc0, 0x3f, 0x00,
   0xc0, 0x3f, 0x00, 0xc0, 0x3f, 0x00, 0x80, 0x1f, 0x00, 0x00, 0x4f, 0x00 };
