#define close_width 20
#define close_height 8
static unsigned char close_bits[] = {
   0x00, 0x0f, 0x00, 0x80, 0x10, 0x00, 0x40, 0x20, 0x00, 0x40, 0x20, 0x00,
   0x40, 0x20, 0x00, 0x40, 0x20, 0x00, 0x80, 0x10, 0x00, 0x00, 0x4f, 0x00 };
