#define iconify_width 20
#define iconify_height 8
static unsigned char iconify_bits[] = {
   0x00, 0x0f, 0x00, 0x80, 0x10, 0x00, 0x40, 0x20, 0x00, 0x40, 0x20, 0x00,
   0x40, 0x20, 0x00, 0x40, 0x21, 0x00, 0x80, 0x10, 0x00, 0x00, 0x0f, 0x00 };
