#define max_width 20
#define max_height 8
static unsigned char max_bits[] = {
   0x00, 0x0f, 0x00, 0x80, 0x10, 0x00, 0x40, 0x24, 0x00, 0x40, 0x20, 0x00,
   0x40, 0x20, 0x00, 0x40, 0x20, 0x00, 0x80, 0x10, 0x00, 0x00, 0x0f, 0x00 };
