#define close_pressed_width 20
#define close_pressed_height 8
static unsigned char close_pressed_bits[] = {
   0x00, 0x00, 0x00, 0x80, 0x1f, 0x00, 0x80, 0x1f, 0x00, 0x80, 0x1f, 0x00,
   0x80, 0x1f, 0x00, 0x80, 0x1f, 0x00, 0x80, 0x1f, 0x00, 0x00, 0x00, 0x00 };
