#define t_width 6
#define t_height 6
static unsigned char t_bits[] = {
   0x0c, 0x0c, 0x0c, 0x0c, 0x0c, 0x0c };
