/* XPM */
static char *logo32[] = {
/* columns rows colors chars-per-pixel */
"32 32 256 2 ",
"   c #010001",
".  c #090706",
"X  c #051B0A",
"o  c #091A0F",
"O  c #0B1408",
"+  c #161709",
"@  c #070A11",
"#  c #0F1C11",
"$  c #161E17",
"%  c #200608",
"&  c #2F0B0A",
"*  c #31180F",
"=  c #341917",
"-  c #06210C",
";  c #172108",
":  c #172C0D",
">  c #0A2B12",
",  c #0A2618",
"<  c #0E2314",
"1  c #122C16",
"2  c #122C1A",
"3  c #182715",
"4  c #0C3C17",
"5  c #173B13",
"6  c #2C380D",
"7  c #3B3A08",
"8  c #232012",
"9  c #382213",
"0  c #2B381C",
"q  c #333316",
"w  c #1D192E",
"e  c #161C3C",
"r  c #281529",
"t  c #0F2339",
"y  c #1B233A",
"u  c #12353B",
"i  c #262B29",
"p  c #3A2620",
"a  c #352929",
"s  c #2D342E",
"d  c #30382E",
"f  c #392333",
"g  c #3B3D3B",
"h  c #43150D",
"j  c #460F16",
"k  c #541314",
"l  c #5B1313",
"z  c #5F1815",
"x  c #54161B",
"c  c #5B1C1D",
"v  c #651814",
"b  c #731817",
"n  c #7C1A19",
"m  c #423F0F",
"M  c #542317",
"N  c #68201B",
"B  c #662818",
"V  c #722A15",
"C  c #7F3318",
"Z  c #712222",
"A  c #653222",
"S  c #64393A",
"D  c #0E471C",
"F  c #12431B",
"G  c #14471A",
"H  c #3E470D",
"J  c #214113",
"K  c #374910",
"L  c #3F4114",
"P  c #36501C",
"I  c #104025",
"U  c #1C4125",
"Y  c #125422",
"T  c #1A5026",
"R  c #125B23",
"E  c #195B24",
"W  c #12403E",
"Q  c #22512C",
"!  c #344B39",
"~  c #285F34",
"^  c #2C5635",
"/  c #156326",
"(  c #166B2A",
")  c #1C682A",
"_  c #1A772E",
"`  c #1A7C2E",
"'  c #17742D",
"]  c #197031",
"[  c #1B7D31",
"{  c #277839",
"}  c #494E0D",
"|  c #514F0D",
" . c #4E530F",
".. c #55540B",
"X. c #575C0F",
"o. c #5A5A0D",
"O. c #5B4C16",
"+. c #485A1E",
"@. c #585919",
"#. c #694C11",
"$. c #6C5911",
"%. c #7A5C15",
"&. c #576219",
"*. c #5B6417",
"=. c #6B6910",
"-. c #777710",
";. c #7D7C11",
":. c #73731D",
">. c #767918",
",. c #575726",
"<. c #51572E",
"1. c #6B7027",
"2. c #79792B",
"3. c #241F47",
"4. c #172659",
"5. c #1B2756",
"6. c #243244",
"7. c #2C3751",
"8. c #182D65",
"9. c #162A6C",
"0. c #192C6B",
"q. c #1C327C",
"w. c #223569",
"e. c #273971",
"r. c #3D445D",
"t. c #267777",
"y. c #49484A",
"u. c #554746",
"i. c #405444",
"p. c #56564E",
"a. c #545453",
"s. c #595757",
"d. c #5C605D",
"f. c #467450",
"g. c #64644F",
"h. c #6B605C",
"j. c #424B68",
"k. c #585E73",
"l. c #656768",
"z. c #716C63",
"x. c #757576",
"c. c #7A7777",
"v. c #7E7876",
"b. c #71737B",
"n. c #831918",
"m. c #8B1A1C",
"M. c #9B1D1E",
"N. c #931D1E",
"B. c #A11F1E",
"V. c #8F3F1B",
"C. c #833117",
"Z. c #9A391D",
"A. c #A33C1E",
"S. c #811F21",
"D. c #8A3F2B",
"F. c #A12021",
"G. c #A82422",
"H. c #B32323",
"J. c #BC2426",
"K. c #C12627",
"L. c #C32728",
"P. c #C72829",
"I. c #CC282A",
"U. c #CB2728",
"Y. c #D42A2B",
"T. c #DA2B2C",
"R. c #E72E2F",
"E. c #EB2D30",
"W. c #F02F31",
"Q. c #F23031",
"!. c #AF4020",
"~. c #B64422",
"^. c #C14824",
"/. c #CF4E27",
"(. c #D14F28",
"). c #87584B",
"_. c #1C8534",
"`. c #1D8C35",
"'. c #1F9439",
"]. c #1F9D3C",
"[. c #208D37",
"{. c #238C39",
"}. c #21963A",
"|. c #229B3C",
" X c #23A13E",
".X c #259C50",
"XX c #24A640",
"oX c #25AD42",
"OX c #29AB45",
"+X c #26B344",
"@X c #28B747",
"#X c #27B946",
"$X c #28BC47",
"%X c #28BD49",
"&X c #2AC54B",
"*X c #2BC94D",
"=X c #848414",
"-X c #8D8D15",
";X c #949315",
":X c #9B9B16",
">X c #90901A",
",X c #ABAB17",
"<X c #ABAB18",
"1X c #A8A219",
"2X c #B0AF17",
"3X c #B4B41A",
"4X c #B8B71A",
"5X c #BCBA1B",
"6X c #C4C41D",
"7X c #C8C81C",
"8X c #D0CF1D",
"9X c #D2D21E",
"0X c #D9D91F",
"qX c #CDCB20",
"wX c #DCDC20",
"eX c #E4E421",
"rX c #EAEA22",
"tX c #F8F724",
"yX c #FEFE25",
"uX c #F3F423",
"iX c #8E8D5A",
"pX c #868673",
"aX c #1D3583",
"sX c #1F398D",
"dX c #1F3A90",
"fX c #223B8D",
"gX c #213B93",
"hX c #233F9A",
"jX c #284398",
"kX c #2442A4",
"lX c #2544AC",
"zX c #2846AE",
"xX c #284FA8",
"cX c #2949B4",
"vX c #2B4CBB",
"bX c #2C54BA",
"nX c #2B4FC2",
"mX c #2E52CA",
"MX c #3158DB",
"NX c #355EE6",
"BX c #365FE9",
"VX c #3660E9",
"CX c #878F89",
"ZX c #8A878A",
"AX c #959596",
"SX c #9B9D9D",
"DX c #A2A3A3",
"FX c #A9A8A7",
"GX c #A9A9A9",
"HX c #B4B6B7",
"JX c #C0C0BF",
"KX c #C5C5C3",
"LX c #C6C7C9",
"PX c #CECECE",
"IX c #D1D1D1",
"UX c None",
/* pixels */
"UXUXUXUXUXUXUXUXUXUXUXUXUXUXUXUXUXUXUXUXUXUXUXUXUXUXUXUXUXUXUXUX",
"UXUXUXUXUXUXUXUXUXUXUXUXUXUXUXUX3XeX9XUXUXUXUXUXUXUXUXUXUXUXUXUX",
"UXUXUXUXUXUXUXUXUXUXUXUXUXUX-X0XyXyXyXwXUXUXUXUXUXUXUXUXUXUXUXUX",
"UXUXUXUXUXUXUXUXUXUXUXUXUXG =XtXyXyXyXyXeXUXUXUXUXUXUXUXUXUXUXUX",
"UXUXUXUXUXUXUXUXUXUXUX_.+X+XE -.rXyXyXrX;.; UXUXUXUXUXUXUXUXUXUX",
"UXUXUXUXUXUXUXUXUXG |.%X&X&X&X] *.wX3X7 > `.oX[ UXUXUXUXUXUXUXUX",
"UXUXUXUXUXUXUXUXUX> XX*X&X&X&X&X/ q ; Y oX&X*X$X[.UXUXUXUXUXUXUX",
"UXUXUXUXUXUXUXUX    2 |.&X&X&X_.> > 2 '.&X&X&X&X&X'.UXUXUXUXUXUX",
"UXUXUXUXT.T.P.UX.     < [.oXY - ( $X}.Q [.&X&X*XoXY } UXUXUXUXUX",
"UXUXY.R.W.Q.E.G.$.-X..+ # 1 4  X&X&X&XOX~ { %X[.5 -.eXeXUXUXUXUX",
"UXv I.W.Q.Y.V.1XuXyXyX8X..@ ] &X&X&X&X&X+XT U 6 2XyXyXyXrXUXUXUX",
"UXG 0 N S.%.wXyXyXyXrX>X7.lXxXt..X$X&X&X'.> o  .rXyXyXyXyXyX6XUX",
"UX[.}.' 2 q -XwXtX7X<.fXMXVXBXNXbXW [ / o Y XX_ &.wXyXyXyXwXX.UX",
"UXUX|. XY 9.8.s @.i zXVXVXNXNXnX4.j & - [ %X&X&X_.+.qXyX5XK D UX",
"UXUX}. X' 8.vXlX4.y.j.jXmXMXfXr n.Y.n [ *X&X&X&X*X}.P :.J ( UXUX",
"UXUX/ [ `.u zXvXgXb.HXAXk.7.x H.T.T.F.1 }.&X&X&X*X+XD 2 [ _.UXUX",
"UXUXUXt I , gXvXzXj.KXPXLXu.H.T.T.T.J.% < {.&X&X|.^ g / { UXUXUX",
"UXUXUXkXgX5.e q.lXe.GXPXPXc.N.T.Y.T.I.&   # [ [ i.ZX! f.CXUXUXUX",
"UXUXUXhXcXzXw B f e x.PXIXDXZ Y.T.K.l O     $ d.GXc.l.FXUXUXUXUX",
"UXUXUXUXcXvX4.Z.^.C.p s.SXHXS U.M.* / [ .   g FXpXp.DXc.UXUXUXUX",
"UXUXUXUXw.hXaXB /.(.V l c u.a k 3 _.+X XX @ l.iX:.z.).UXUXUXUXUX",
"UXUXUXUX=X1.6.= ^.(.Z.b J.M.k 3 }.+X+XoX4 + 2.1XO.D.Z.UXUXUXUXUX",
"UXUXUXUXUX7X1X} M A.~.v J.K.J.9 ].+X+X+XY ..,X=.C !.UXUXUXUXUXUX",
"UXUXUXUXUX6X8X=Xa.h.A h G.K.K.z [ +X+X` : ;.-X#.Z.UXUXUXUXUXUXUX",
"UXUXUXUXUX2X6X2Xg.LXDXy.k B.K.m.E  XR H -X=X:XUXUXUXUXUXUXUXUXUX",
"UXUXUXUXUXUXUX<X,.HXIXFXy 3.x n : G =.9XwX;XUXUXUXUXUXUXUXUXUXUX",
"UXUXUXUXUXUXUXUXUXAXPXKXr.kXsXe 8 ;XeXrXeX:XUXUXUXUXUXUXUXUXUXUX",
"UXUXUXUXUXUXUXUXUXUXDXJXl.gXvXlXd 9XeXrXeX<XUXUXUXUXUXUXUXUXUXUX",
"UXUXUXUXUXUXUXUXUXUXUXUXa.0.cXvX5.4XrXeX4Xo.UXUXUXUXUXUXUXUXUXUX",
"UXUXUXUXUXUXUXUXUXUXUXUXUXUXq.lXq.=XeX:XUXUXUXUXUXUXUXUXUXUXUXUX",
"UXUXUXUXUXUXUXUXUXUXUXUXUXUXUXUX9.L -.UXUXUXUXUXUXUXUXUXUXUXUXUX",
"UXUXUXUXUXUXUXUXUXUXUXUXUXUXUXUXUXUXUXUXUXUXUXUXUXUXUXUXUXUXUXUX"
};
